<svg version="1.2" xmlns="http://www.w3.org/2000/svg" viewBox="0 0 821 172" width="821" height="172">
	<style>
		.s0 { fill: #274b2b } 
		.s1 { fill: #274125 } 
	</style>
	<g id="&lt;Group&gt;">
		<g id="&lt;Group&gt;">
			<path id="&lt;Compound Path&gt;" fill-rule="evenodd" class="s0" d="m209.57 77.24q3.88-0.15 7.46-0.27 3.58-0.11 6.78-0.26 2.82-0.16 4.53-0.5 1.71-0.34 3.01-1.18 1.52 0.08 3.39 0.31 1.86 0.22 3.54 0.61 2.82 0.53 2.82 2.2 0 2.14-2.82 2.14-0.69 0-2.63-0.12-1.94-0.11-3.77-0.26-1.14-0.08-3.35-0.08-2.21 0-5.41 0-3.58 0.08-7.53 0.15-3.97 0.08-7.96 0.23-4 0.15-7.96 0.3-3.96 0.16-7.62 0.31-1.52 0.15-3.04 0.57-1.53 0.42-2.82 1.26-0.99-0.08-2.17-0.42-1.18-0.34-2.36-0.8-1.18-0.46-2.29-1.03-1.1-0.57-1.86-1.18-0.54-0.38-0.8-0.84-0.27-0.45-0.27-0.84 0-1.14 2.36-0.76 2.21 0.38 4.61 0.57 2.4 0.19 5.06 0.19 4.04 0.01 8.08-0.03 4.03-0.04 7.99-0.12v-8.07q0-1.37-1.37-2.25-1.37-0.87-4.19-1.86-1.44-0.53-1.44-1.22 0-0.38 0.57-0.84 0.57-0.46 1.71-0.46 0.76 0 2.06 0.08 1.29 0.08 2.74 0.23 1.44 0.15 2.85 0.38 1.41 0.23 2.4 0.53l-0.3 4.12zm11.12-27.5q1.44-0.15 2.62-0.45 1.18-0.31 1.72-0.69 1.06-0.07 2.4-0.04 1.33 0.04 2.17 0.19 1.44 0.16 1.71 0.69 0.27 0.53 0.12 1.06-0.31 1.07-0.65 1.83-0.34 0.76-0.5 1.6-0.91 4.19-1.94 8.26-1.03 4.08-2.32 7.43-0.54 1.3-1.14 1.87-0.61 0.57-1.15 0.53-0.53-0.04-0.8-0.61-0.26-0.57-0.11-1.49 0.38-2.13 0.69-4.07 0.3-1.94 0.49-3.92 0.19-1.98 0.34-4.19 0.15-2.21 0.31-4.87-2.29-0.16-5.94-0.16-3.66 0-7.54 0.12-3.89 0.11-7.43 0.34-3.54 0.23-5.59 0.46-1.53 0.15-2.86 0.45-1.33 0.31-2.55 1.07-0.92-0.23-2.02-0.69-1.1-0.45-2.06-0.95-0.95-0.49-1.75-0.99-0.8-0.49-1.1-0.8-0.46-0.45-0.46-0.99 0-1.06 1.75-0.68 1.75 0.3 3.35 0.34 1.6 0.04 3.13 0.04 3.04 0 6.85-0.04 3.81-0.04 7.58-0.15 3.77-0.12 7.12-0.23 3.35-0.11 5.56-0.27zm-27.95 49.58q0-2.82 1.25-5.25 1.26-2.44 3.43-4.27 2.17-1.83 5.14-2.89 2.97-1.07 6.4-1.07 3.43 0 6.4 1.07 2.97 1.06 5.14 2.89 2.17 1.83 3.42 4.27 1.26 2.43 1.26 5.25 0 2.82-1.26 5.33-1.25 2.51-3.42 4.38-2.17 1.87-5.14 2.97-2.97 1.1-6.4 1.11-3.43-0.01-6.4-1.11-2.97-1.1-5.14-2.97-2.17-1.87-3.43-4.38-1.25-2.51-1.25-5.33zm5.18 0q0 2.13 0.87 3.96 0.88 1.83 2.36 3.16 1.49 1.33 3.54 2.1 2.06 0.76 4.35 0.76 2.28 0 4.34-0.76 2.05-0.77 3.58-2.1 1.52-1.33 2.39-3.16 0.88-1.83 0.88-3.96 0-2.13-0.88-3.96-0.87-1.83-2.39-3.16-1.53-1.33-3.58-2.09-2.06-0.77-4.34-0.77-2.29 0-4.35 0.77-2.05 0.76-3.54 2.09-1.48 1.33-2.36 3.16-0.87 1.83-0.87 3.96z"/>
			<path id="&lt;Compound Path&gt;" fill-rule="evenodd" class="s0" d="m265.7 66.43q0 2.36 1.98 2.2l17.82-0.45q1.75-0.15 3.19-0.69 1.45-0.53 1.83-1.06 1.53 0 3.32 0.11 1.78 0.11 3.31 0.42 2.28 0.38 2.28 2.06 0 1.98-2.74 1.98l-15.23 0.22v9.68q3.35-0.16 6.44-0.27 3.08-0.11 5.97-0.27 2.82-0.15 4.54-0.49 1.71-0.34 3-1.18 1.53 0.07 3.39 0.3 1.87 0.23 3.54 0.61 2.82 0.54 2.82 2.21 0 2.13-2.82 2.13-0.68 0-2.62-0.11-1.95-0.12-3.77-0.27-1.15-0.07-3.35-0.08-2.21 0-5.41 0-3.58 0.08-7.54 0.16-3.96 0.07-7.96 0.23-4 0.15-7.96 0.3-3.96 0.15-7.61 0.31-1.53 0.15-3.05 0.57-1.52 0.42-2.82 1.25-0.99-0.07-2.17-0.42-1.18-0.34-2.36-0.8-1.18-0.45-2.28-1.02-1.11-0.57-1.87-1.18-0.53-0.39-0.8-0.84-0.27-0.46-0.27-0.84 0-1.14 2.37-0.76 2.2 0.38 4.6 0.57 2.4 0.19 5.07 0.19 9.21 0 17.89-0.23v-9.67l-10.12 0.15q-5.79 0.16-5.79-6.47v-8.76q0-1.83-5.79-3.27-1.52-0.38-1.52-1.15 0-0.61 0.53-1.14 0.53-0.53 1.6-0.61 1.37-0.07 2.89 0 1.53 0.08 2.9 0.23 1.37 0.15 2.51 0.38 1.14 0.23 1.75 0.46 4.87-0.15 9.33-0.23 4.46-0.07 9.25-0.23 1.6 0 2.9-0.46 1.29-0.45 2.13-1.29 1.52 0 3.2 0.11 1.67 0.12 3.2 0.42 2.28 0.38 2.28 2.14 0 1.98-2.74 1.98-7.62 0.07-14.62 0.15-7.01 0.07-14.62 0.23zm-2.75 34.88q0-2.74 1.26-5.07 1.26-2.32 3.43-4 2.17-1.67 5.1-2.59 2.93-0.91 6.36-0.91 3.43 0 6.36 0.91 2.93 0.92 5.1 2.59 2.17 1.68 3.43 4 1.25 2.33 1.25 5.07 0 2.74-1.25 5.1-1.26 2.36-3.43 4.07-2.17 1.72-5.1 2.71-2.93 0.99-6.36 0.99-3.43 0-6.36-0.99-2.93-0.99-5.1-2.71-2.17-1.71-3.43-4.07-1.26-2.36-1.26-5.1zm5.33 0q0.01 4.11 3.09 6.51 3.08 2.4 7.73 2.4 4.64 0 7.73-2.4 3.08-2.4 3.08-6.51 0-4.12-3.08-6.52-3.09-2.39-7.73-2.39-4.65 0-7.73 2.39-3.08 2.4-3.09 6.52z"/>
			<path id="&lt;Compound Path&gt;" fill-rule="evenodd" class="s0" d="m351.07 55.08v16.52q0 1-0.04 2.67-0.04 1.68-0.34 3.31-0.31 1.64-0.96 2.86-0.64 1.22-1.86 1.22-1.3 0-1.68-3.05l-17.51 0.53q-0.31 1.53-0.95 2.67-0.65 1.14-1.79 1.14-1.76 0-1.76-5.33v-18.58q0-1.37-1.21-2.25-1.22-0.87-4.04-1.94-0.61-0.3-1.03-0.57-0.42-0.27-0.42-0.65 0-0.38 0.57-0.84 0.57-0.45 1.72-0.45 0.53 0 1.86 0.07 1.33 0.08 2.9 0.27 1.56 0.19 2.93 0.38 1.37 0.19 1.98 0.42l-0.31 4.11v3.96l16.99-0.38v-4.64q0-1.38-1.22-2.52-1.22-1.14-4.04-2.21-0.61-0.3-1.03-0.57-0.42-0.26-0.41-0.64-0.01-0.39 0.57-0.84 0.57-0.46 1.71-0.46 0.53 0 1.9 0.15 1.37 0.16 2.94 0.42 1.56 0.27 2.97 0.57 1.4 0.31 1.86 0.54zm-21.93 19.07q0 0.73-0.08 1.56l17.06-0.3v-10.89l-16.98 0.38c0 0.36 0 8.77 0 9.25zm43.1 15.04v12.87q0 0.99-0.04 2.67-0.03 1.67-0.34 3.31-0.3 1.64-0.95 2.86-0.65 1.22-1.87 1.22-1.37 0-1.67-2.9l-21.93 0.16q-0.31 1.52-0.96 2.66-0.64 1.14-1.79 1.14-1.75 0-1.75-5.33v-15.3q0-1.38-1.1-2.21-1.11-0.84-3.92-1.91-0.61-0.3-1.03-0.57-0.42-0.26-0.42-0.65 0-0.38 0.57-0.83 0.57-0.46 1.71-0.46 0.54 0 1.87 0.08 1.33 0.07 2.82 0.22 1.48 0.16 2.82 0.35 1.33 0.19 1.94 0.41l-0.31 4.12v2.82l21.4-0.08v-3.2q0-1.37-1.03-2.36-1.02-0.99-3.84-2.06-0.61-0.3-1.03-0.57-0.42-0.26-0.42-0.64 0-0.39 0.57-0.84 0.57-0.46 1.72-0.46 0.53 0 1.86 0.12 1.33 0.11 2.82 0.3 1.48 0.19 2.82 0.46 1.33 0.26 1.79 0.49zm-26.35 15.27q0 0.65-0.08 1.49h21.48v-8.76l-21.4 0.07c0 0.31 0 6.77 0 7.2zm26.65-54.64v20.56q0 1.22-0.04 3.2-0.04 1.98-0.34 3.88-0.3 1.91-0.95 3.32-0.65 1.41-1.87 1.4-1.75 0.01-1.75-6.47v-9.44q-1.52 0.08-3.16 0.15-1.64 0.08-2.25 0.15-0.83 0.16-1.44 0.42-0.61 0.27-1.45 0.88-0.46 0-1.41-0.31-0.95-0.3-1.94-0.68-0.99-0.38-1.87-0.84-0.87-0.46-1.25-0.84-0.76-0.61-0.61-1.29 0.15-0.69 1.29-0.61 1.22 0.08 2.9 0.08 1.67 0 3.58 0 1.9 0 3.84-0.04 1.94-0.04 3.77-0.12v-11.95q0-1.37-1.41-2.52-1.41-1.14-4.22-2.21-0.61-0.3-1.03-0.57-0.42-0.26-0.42-0.64 0-0.38 0.57-0.84 0.57-0.46 1.71-0.46 0.54 0 1.98 0.15 1.45 0.16 3.09 0.42 1.64 0.27 3.08 0.57 1.45 0.31 1.91 0.54z"/>
			<path id="&lt;Compound Path&gt;" fill-rule="evenodd" class="s0" d="m436.82 75.79q0.53 0 1.37-0.11 0.84-0.11 1.68-0.31 0.83-0.19 1.59-0.45 0.77-0.27 1.22-0.65 1.3-0.07 3.13 0.11 1.82 0.2 2.89 0.42 1.22 0.23 2.17 0.8 0.95 0.57 0.8 1.87-0.15 1.29-1.45 1.79-1.29 0.49-3.2 0.34-0.99-0.07-2.43-0.15-1.45-0.08-3.01-0.12-1.56-0.03-3.12-0.07-1.57-0.04-2.71-0.04h-5.02v0.46q0 1.52-0.04 3.73-0.04 2.21-0.57 3.96 1.75-0.15 3.27-0.23 1.52-0.07 2.13-0.23 1.3-0.15 1.79 0.27 0.5 0.42 0.5 0.95 0 0.53-0.27 1.26-0.26 0.72-0.65 1.56-0.38 1.37-1.02 3.31-0.65 1.94-1.18 3.09 0.61-0.08 1.29-0.08 0.69 0 1.18 0.19 0.5 0.19 0.84 0.57 0.34 0.38 0.27 1.07-0.08 1.06-1.03 1.44-0.96 0.39-2.4 0.23-8.61 0-15.46 0.15-6.86 0.16-11.65 0.39-0.08 0.38-0.08 0.95 0 0.57 0 0.65v4.18q0 2.06 1.6 2.06 2.13 0.08 4.57 0.08 2.44 0 4.91-0.08 2.48-0.08 4.8-0.19 2.32-0.12 4.23-0.27 1.21-0.15 2.7-0.57 1.48-0.42 2.32-1.26 1.07-0.15 2.93-0.03 1.87 0.11 2.94 0.26 1.14 0.16 2.21 0.65 1.06 0.5 1.06 1.64 0 2.59-3.88 2.44-1.98-0.08-5.6-0.04-3.62 0.03-7.81 0.11-4.19 0.08-8.41 0.15-4.23 0.08-7.35 0.08-3.2 0.23-4.91-1.26-1.72-1.48-1.72-4.68v-3.12q-0.53-1.3-1.75-1.87-1.22-0.57-2.51-0.95-1.75-0.46-1.64-1.41 0.12-0.95 1.87-1.1 0.83-0.08 2.13 0 1.29 0.07 2.7 0.15 1.41 0.07 2.78 0.19 1.37 0.11 2.36 0.11 2.59 0.08 5.91 0 3.31-0.07 6.47-0.19 3.16-0.11 5.83-0.23 2.66-0.11 4.03-0.19 0.15-1.52 0.27-3.54 0.11-2.01 0.11-3.54-2.05-0.07-4.6-0.04-2.56 0.04-5.18 0.16-2.63 0.11-5.14 0.3-2.52 0.19-4.57 0.34-2.14 0.16-3.89 0.73-1.75 0.57-2.51 0.95-0.76-0.23-1.79-0.65-1.03-0.42-2.02-0.91-0.99-0.5-1.83-1.03-0.83-0.53-1.21-0.91-0.54-0.46-0.61-0.92-0.08-0.46 0.15-0.8 0.23-0.34 0.65-0.49 0.41-0.16 0.87-0.08 0.46 0.08 1.26 0.19 0.8 0.12 1.64 0.23 0.83 0.11 1.63 0.23 0.8 0.11 1.26 0.11 0.61 0.08 1.29 0.08 0.69 0 1.45 0-0.23-0.99-0.23-2.59v-5.79q-2.21 0.15-4 0.19-1.79 0.04-2.85 0.19-1.91 0.16-3.66 0.73-1.75 0.57-2.51 0.95-0.84-0.23-1.9-0.69-1.07-0.45-2.14-0.99-1.06-0.53-1.98-1.1-0.91-0.57-1.29-1.03-0.92-0.99-0.34-1.6 0.57-0.61 1.4-0.46 0.46 0.08 1.38 0.19 0.91 0.12 1.94 0.19 1.03 0.08 1.98 0.16 0.95 0.07 1.41 0.07 11.11 0.16 21.32 0.08 10.2-0.08 20.64-0.69zm-28.79-7.69q2.13 0.08 4.61 0.04 2.47-0.04 4.99-0.11 2.51-0.08 4.95-0.16 2.43-0.07 4.49-0.23 1.14-0.07 2.74-0.53 1.6-0.45 2.44-1.29 1.07-0.16 2.89-0.16 1.83 0 2.9 0.16 1.14 0.15 2.21 0.68 1.06 0.54 1.06 1.83 0 1.22-1.18 1.9-1.18 0.69-3.08 0.61-1.98-0.07-5.64-0.03-3.65 0.03-7.88 0.11-4.23 0.08-8.49 0.15-4.27 0.08-7.39 0.08-3.2 0.23-4.91-1.22-1.71-1.45-1.71-4.65v-2.81q-0.92-1.3-2.37-2.02-1.44-0.73-2.74-1.03-0.84-0.23-1.25-0.61-0.42-0.38-0.38-0.8 0.03-0.42 0.49-0.72 0.46-0.31 1.37-0.38 0.84-0.08 2.21 0 1.37 0.07 2.86 0.19 1.48 0.11 2.93 0.22 1.44 0.12 2.43 0.2 2.75 0.15 6.29 0.15 3.54 0 6.97-0.12 3.42-0.11 6.28-0.3 2.85-0.19 4.15-0.42 0.3-1.52 0.49-3.16 0.19-1.64 0.27-3.39-2.28-0.15-5.22-0.15-2.93 0-5.9 0.11-2.97 0.12-5.71 0.31-2.74 0.19-4.8 0.42-1.9 0.15-3.69 0.68-1.79 0.54-2.55 0.92-0.84-0.23-1.75-0.61-0.92-0.38-1.83-0.88-0.92-0.49-1.68-0.99-0.76-0.49-1.14-0.95-0.91-0.99-0.38-1.6 0.53-0.61 1.45-0.46 0.45 0.08 1.22 0.15 0.76 0.08 1.56 0.16 0.8 0.07 1.56 0.15 0.76 0.08 1.22 0.08 2.97 0.15 6.66 0.11 3.69-0.04 7.27-0.11 3.58-0.08 6.55-0.19 2.97-0.12 4.5-0.2 2.2-0.15 4.41-0.26 2.21-0.12 2.97-0.27 1.3-0.15 1.79 0.27 0.5 0.42 0.5 0.95 0 0.53-0.31 1.26-0.3 0.72-0.61 1.56-0.61 1.52-1.25 2.97-0.65 1.44-1.41 2.74 1.29-0.23 2.43 0.11 1.15 0.35 1.22 1.72 0.08 1.06-0.64 1.6-0.73 0.53-1.72 0.53-4.34-0.08-8.53-0.04-4.19 0.04-7.96 0.12-3.77 0.07-7.04 0.19-3.28 0.11-5.71 0.19-0.08 0.84-0.08 1.06 0 0.23 0 0.31v3.88q0 1.98 1.6 1.98zm18.05 19.5q-0.15-0.61-0.23-1.37-0.07-0.76-0.07-1.68v-5.33q-3.36 0.08-6.78 0.11-3.43 0.04-6.63 0.12v0.84q0 1.52-0.04 3.73-0.03 2.21-0.57 3.96 4.04 0 7.85-0.12 3.8-0.11 6.47-0.26z"/>
			<path id="&lt;Compound Path&gt;" class="s0" d="m457.99 93.61q-0.53 0.46-1.14 0.5-0.61 0.04-0.99-0.19-0.38-0.23-0.42-0.76-0.04-0.54 0.65-1.22 3.12-2.97 6.16-6.82 3.05-3.84 5.6-7.96 2.55-4.11 4.5-8.3 1.94-4.18 2.85-7.99 0.08-0.31 0.15-0.77 0.08-0.45 0.08-0.6 0-0.61-1.18-1.68-1.18-1.07-3.62-1.83-1.29-0.45-1.29-1.29 0-0.46 0.53-0.8 0.53-0.34 1.45-0.34 0.91 0 2.62 0.34 1.72 0.34 3.43 0.84 1.71 0.49 3.12 1.02 1.41 0.54 1.87 0.92 0 0.38-0.19 1.06-0.19 0.69-0.34 1.45-1.37 5.56-4.8 11.65 0.68 0.69 1.71 1.75 1.03 1.07 2.14 2.17 1.1 1.11 2.05 2.02 0.95 0.92 1.49 1.37 0.61 0.46 1.29 0.92 0.69 0.46 1.3 0.68 0.83 0.31 1.29 0.57 0.46 0.27 0.84 0.8 1.67 2.29 2.66 4.42 0.99 2.13 1.37 4.34 0.23 1.53-1.37 1.68-1.14 0.07-3.42-2.74l-12.87-15.24q-3.58 5.87-8.15 11.12-4.57 5.26-9.37 8.91zm50.19-43.79v22.77q0.61-0.07 1.14-0.07 0.53 0 0.84 0 1.67-0.15 3.01-0.69 1.33-0.53 1.86-1.22 1.07 0 2.7 0.12 1.64 0.11 2.94 0.27 2.21 0.38 2.21 2.2 0 1.98-2.67 1.98-2.74 0.08-5.98 0.12-3.24 0.04-6.05 0.11v18.74q0 0.99 0 2.66 0 1.68-0.08 3.66-0.08 1.98-0.3 4-0.23 2.01-0.58 3.65-0.34 1.64-0.91 2.67-0.57 1.03-1.41 1.03-1.67-0.01-1.67-9.45v-51.1q0-1.37-1.41-2.51-1.41-1.14-4.23-2.21-0.61-0.3-1.03-0.57-0.42-0.27-0.42-0.65 0-0.38 0.58-0.84 0.57-0.45 1.71-0.45 0.53 0 1.98 0.15 1.44 0.15 3.08 0.42 1.64 0.26 3.09 0.57 1.44 0.3 1.9 0.53z"/>
			<path id="&lt;Compound Path&gt;" fill-rule="evenodd" class="s0" d="m556.69 85.24q-3.5 0.15-6.97 0.3-3.46 0.15-6.89 0.31-1.53 0.15-3.09 0.57-1.56 0.42-2.93 1.25-1.07-0.07-2.28-0.41-1.22-0.35-2.44-0.84-1.22-0.5-2.32-1.07-1.11-0.57-1.94-1.18-0.54-0.38-0.8-0.88-0.27-0.49-0.27-0.87 0-1.14 2.44-0.76 2.21 0.38 4.72 0.57 2.51 0.19 5.25 0.19 9.75 0 18.24-0.19 8.49-0.19 16.19-0.57 2.89-0.15 4.64-0.57 1.75-0.42 3.12-1.26 1.53 0.08 3.47 0.3 1.94 0.23 3.69 0.61 2.9 0.61 2.9 2.36 0 2.37-2.9 2.37-0.76 0-2.47-0.12-1.72-0.11-4.15-0.34-0.99-0.08-3.35-0.12-2.37-0.03-5.72-0.03l-10.96 0.22v13.56q0 1.37-0.04 3.77-0.04 2.4-0.38 4.68-0.34 2.29-1.03 3.96-0.68 1.68-1.98 1.68-1.75 0-1.75-8.61zm20.1-29.7q-0.3 3.05-0.68 6.44-0.38 3.39-0.84 7.42 2.44 0.38 2.44 1.98 0 1.76-2.82 1.91-3.12-0.08-6.89-0.04-3.77 0.04-7.65 0.08-3.89 0.03-7.62 0.11-3.73 0.08-6.78 0.15-0.08 0.69-0.84 1.72-0.76 1.02-1.6 1.02-1.06 0-1.67-0.95-0.61-0.95-0.76-2.25l-1.6-18.04q-0.54-1.07-1.64-1.72-1.1-0.64-2.25-1.03-0.76-0.22-1.14-0.64-0.38-0.42-0.38-0.88 0-0.46 0.38-0.8 0.38-0.34 1.22-0.34 0.84 0 2.06 0.04 1.21 0.04 2.59 0.15 1.37 0.11 2.74 0.27 1.37 0.15 2.66 0.3 2.21 0.08 4.91 0.08 2.71 0 5.49-0.08 2.78-0.08 5.41-0.19 2.62-0.11 4.68-0.27 1.44-0.15 2.82-0.45 1.37-0.31 1.9-0.69 1.07-0.07 2.67-0.04 1.59 0.04 2.43 0.19 1.45 0.16 1.72 0.69 0.26 0.53 0.11 1.07-0.23 1.14-0.57 2.36-0.34 1.21-0.5 2.43zm-7.15 14.4q0.53-0.08 0.68-0.19 0.15-0.12 0.31-0.35l0.15-16.22q-2.52 0-6.06 0.04-3.54 0.04-7.16 0.08-3.61 0.03-6.81 0.15-3.2 0.11-5.03 0.19-0.07 0.84-0.07 1.18 0 0.34 0 0.57l0.38 15.23q1.67 0 4.64-0.04 2.97-0.03 6.36-0.07 3.39-0.04 6.78-0.19 3.39-0.15 5.83-0.38z"/>
			<path id="&lt;Compound Path&gt;" class="s0" d="m633.45 94.45q2.9-0.15 5.6-0.23 2.7-0.07 5.14-0.23 2.82-0.15 4.53-0.49 1.72-0.34 3.01-1.18 1.52 0.08 3.39 0.3 1.87 0.23 3.54 0.61 2.82 0.54 2.82 2.21 0 2.13-2.82 2.13-0.68 0-2.63-0.11-1.94-0.11-3.76-0.27-1.15-0.07-3.36-0.07-2.21 0-5.4 0-3.58 0.07-7.54 0.15-3.96 0.08-7.96 0.23-4 0.15-7.96 0.3-3.96 0.16-7.61 0.31-1.53 0.15-3.05 0.57-1.53 0.42-2.82 1.25-0.99-0.07-2.17-0.41-1.18-0.35-2.36-0.8-1.18-0.46-2.29-1.03-1.1-0.57-1.86-1.18-0.53-0.38-0.8-0.84-0.27-0.46-0.27-0.84 0-1.14 2.36-0.76 2.21 0.38 4.61 0.57 2.4 0.19 5.07 0.19 4.95 0 9.86-0.04 4.91-0.03 9.71-0.19v-9.82q0-1.37-1.37-2.25-1.37-0.87-4.19-1.86-1.45-0.54-1.45-1.22 0-0.38 0.57-0.84 0.57-0.46 1.72-0.46 0.76 0 2.05 0.08 1.3 0.08 2.74 0.23 1.45 0.15 2.86 0.38 1.41 0.23 2.4 0.53l-0.31 4.11zm-5.33-38q0.15-0.53 0.08-0.91-0.15-0.69-1.52-1.68-1.37-0.99-2.75-1.67-1.21-0.69-1.14-1.45 0.08-0.46 0.73-0.76 0.64-0.3 1.48-0.15 1.3 0.15 3.01 0.61 1.71 0.45 3.31 1.02 1.6 0.58 2.93 1.15 1.34 0.57 1.79 1.02-0.07 0.46-0.34 1.19-0.27 0.72-0.42 1.18-1.6 3.88-4.49 7.46 1.06 0.61 2.55 1.41 1.49 0.8 2.97 1.6 1.48 0.8 2.82 1.44 1.33 0.65 2.02 0.96 0.83 0.38 1.56 0.38 0.72 0 1.33 0.07 0.69 0.08 1.37 0.27 0.69 0.19 1.3 0.57 2.66 1.75 4.91 3.58 2.24 1.83 3.69 3.5 0.84 0.92 0.53 2.02-0.3 1.11-1.52 1.33-0.61 0.16-1.48-0.11-0.88-0.27-2.25-1.1l-22.01-13.26q-2.59 2.9-5.64 5.49-3.04 2.59-6.32 4.83-3.27 2.25-6.55 4.08-3.27 1.83-6.24 3.04-0.91 0.39-1.52 0.31-0.61-0.08-0.88-0.42-0.27-0.34-0.08-0.84 0.19-0.49 0.96-0.95 3.35-2.06 7-4.65 3.66-2.58 7.12-5.75 3.47-3.15 6.48-6.85 3-3.69 5.21-7.96z"/>
			<path id="&lt;Compound Path&gt;" fill-rule="evenodd" class="s0" d="m695.6 62.77q-1.53-0.23-3.47-1.14-1.94-0.92-3.23-1.98-0.92-0.76-0.77-1.6 0.08-0.38 0.46-0.69 0.38-0.3 1.37-0.15 1.6 0.31 3.77 0.46 2.17 0.15 4.15 0.15 2.13 0 4.5-0.08 2.36-0.07 4.64-0.15 2.29-0.07 4.38-0.19 2.09-0.11 3.62-0.19 2.13-0.23 3.69-0.49 1.56-0.27 2.63-1.11 1.06 0.08 2.7 0.23 1.64 0.15 2.86 0.46 2.21 0.61 2.21 2.21 0 2.36-2.21 2.36-0.54 0-2.21-0.16-1.68-0.15-3.05-0.3-1.14-0.15-3.16-0.11-2.02 0.03-4 0.03-1.52 0-3.27 0.08-1.75 0.08-3.58 0.19-1.83 0.11-3.66 0.23-1.82 0.11-3.35 0.27-1.22 0.15-2.59 0.49-1.37 0.34-2.43 1.18zm0 12.79q0-2.43 0.99-4.53 0.99-2.09 2.82-3.65 1.82-1.56 4.41-2.44 2.59-0.87 5.71-0.87 3.13 0 5.68 0.87 2.55 0.88 4.38 2.44 1.82 1.56 2.85 3.65 1.03 2.1 1.03 4.53 0 2.44-1.03 4.5-1.03 2.05-2.85 3.58-1.83 1.52-4.42 2.4-2.59 0.87-5.64 0.87-3.12 0-5.67-0.87-2.55-0.88-4.38-2.4-1.83-1.53-2.85-3.58-1.03-2.06-1.03-4.5zm22.16-24.97q0 0.91-1.03 1.56-1.03 0.64-2.32 0.64-0.84 0-2.21 0-1.37 0-2.86 0.04-1.48 0.04-2.89 0.08-1.41 0.04-2.32 0.11-0.61-0.23-1.34-0.64-0.72-0.42-1.48-0.96-0.76-0.53-1.41-1.1-0.65-0.57-0.95-1.03-0.54-0.68-0.15-1.26 0.38-0.57 1.75-0.26 0.61 0.15 1.83 0.3 1.21 0.16 2.13 0.31 0.76 0.15 1.98 0.19 1.22 0.04 2.59 0.07 1.37 0.04 2.78 0.04 1.4 0 2.7 0 3.2 0 3.2 1.91zm-17.06 24.75q0 3.58 2.44 5.75 2.43 2.17 6.39 2.17 3.89 0 6.33-2.17 2.43-2.17 2.43-5.75 0-3.51-2.43-5.64-2.44-2.13-6.33-2.13-3.96 0-6.39 2.13-2.44 2.13-2.44 5.64zm8.53 23.68q0-1.37-1.37-2.25-1.37-0.87-4.19-1.86-1.45-0.53-1.45-1.22 0-0.38 0.57-0.84 0.58-0.45 1.72-0.45 0.53 0 1.98 0.11 1.44 0.11 3.08 0.27 1.64 0.15 3.09 0.38 1.44 0.23 1.9 0.45l-0.3 4.12v7.69q0 2.13 1.98 2.13l14.47-0.08q1.44 0 2.81-0.49 1.37-0.5 2.14-1.18 2.2 0 4.3 0.19 2.09 0.19 3.16 0.49 0.76 0.31 1.26 0.8 0.49 0.5 0.49 1.18 0 2.06-2.74 2.06l-27.26 0.08q-6.02 0-5.64-6.48zm30.46-49.19v21.4q0.61-0.08 1.14-0.08 0.54 0 0.84 0 1.68-0.15 3.01-0.68 1.33-0.54 1.87-1.22 1.06 0 2.7 0.11 1.64 0.12 2.93 0.27 2.21 0.38 2.21 2.21 0 1.98-2.66 1.98-2.75 0.07-5.98 0.11-3.24 0.04-6.06 0.11v9.9q0 1.22-0.04 3.28-0.04 2.06-0.34 4.04-0.3 1.98-0.95 3.42-0.65 1.45-1.87 1.45-1.75 0-1.75-6.47v-38.39q0-1.37-1.41-2.51-1.41-1.14-4.22-2.21-0.61-0.3-1.03-0.57-0.42-0.27-0.42-0.65 0-0.38 0.57-0.83 0.57-0.46 1.71-0.46 0.54 0 1.98 0.15 1.45 0.15 3.09 0.42 1.64 0.27 3.08 0.57 1.45 0.31 1.91 0.53z"/>
			<path id="&lt;Compound Path&gt;" class="s0" d="m815.01 49.82v19.35q0 1.22-0.04 3.27-0.04 2.06-0.34 4.04-0.3 1.98-0.95 3.43-0.65 1.44-1.87 1.44-1.75 0-1.75-6.47v-1.14q-0.53 0-1.67 0.07-1.15 0.08-2.33 0.16-1.18 0.07-2.24 0.15-1.07 0.07-1.53 0.07-0.84 0.16-1.44 0.42-0.61 0.27-1.45 0.88-0.46 0-1.56-0.31-1.11-0.3-2.29-0.68-1.18-0.38-2.21-0.84-1.02-0.46-1.4-0.84-0.77-0.61-0.61-1.25 0.15-0.65 1.29-0.65 1.37 0.08 3.54 0.08 2.17 0 4.61-0.04 2.44-0.04 4.87-0.12 2.44-0.07 4.42-0.15v-8.76q-0.46 0-1.48 0.08-1.03 0.08-2.14 0.15-1.1 0.08-2.05 0.15-0.95 0.08-1.41 0.08-0.84 0.15-1.45 0.42-0.61 0.27-1.45 0.87-0.45 0-1.4-0.3-0.96-0.3-1.95-0.69-0.99-0.38-1.9-0.83-0.91-0.46-1.29-0.84-0.16-0.08-0.39-0.31-3.04 5.03-6.7 9.14-3.65 4.12-7.54 7.43-3.88 3.31-7.92 5.94-4.03 2.63-7.84 4.68-0.99 0.54-1.6 0.5-0.61-0.04-0.8-0.38-0.19-0.35 0.04-0.92 0.23-0.57 0.99-1.03 3.81-2.43 7.8-5.63 4-3.2 7.66-7.05 3.65-3.84 6.74-8.22 3.08-4.38 5.06-9.18-1.29 0-2.93 0.04-1.64 0.04-3.39 0.11-1.75 0.08-3.46 0.2-1.72 0.11-3.01 0.26-1.53 0.15-2.86 0.53-1.33 0.39-2.55 1.15-0.91-0.23-1.98-0.65-1.07-0.42-2.06-0.88-0.99-0.45-1.75-0.95-0.76-0.49-1.06-0.8-0.46-0.45-0.46-0.99 0-1.06 1.75-0.68 1.75 0.3 3.35 0.34 1.6 0.04 3.12 0.04 1.37 0 3.39-0.04 2.02-0.04 4.31-0.15 2.28-0.12 4.6-0.19 2.33-0.08 4.15-0.23 1.22-0.08 2.14-0.46 0.91-0.38 1.29-0.61 0.69 0 1.79 0.08 1.1 0.07 2.17 0.23 1.37 0.23 1.52 1.14 0.08 0.53-0.3 1.07-0.38 0.53-0.84 1.21-0.15 0.31-0.38 0.65-0.23 0.34-0.38 0.72-0.3 0.54-0.53 1.03-0.23 0.5-0.54 0.95h0.08q1.37 0.08 3.31 0.08 1.94 0 4.08-0.04 2.13-0.03 4.34-0.11 2.21-0.08 4.11-0.15v-7.62q0-1.37-1.41-2.51-1.41-1.14-4.22-2.21-0.61-0.3-1.03-0.57-0.42-0.27-0.42-0.65 0-0.38 0.57-0.84 0.57-0.45 1.71-0.45 0.54 0 1.98 0.15 1.45 0.15 3.09 0.42 1.63 0.26 3.08 0.57 1.45 0.3 1.91 0.53zm-1.45 45.77q1.44 0.31 1.94 0.76 0.49 0.46 0.5 1.15 0 1.75-2.75 1.82l-24.6 0.54v7.08q0 1.9 1.99 1.9l15.53-0.07q2.13 0 3.62-0.61 1.48-0.61 2.17-1.22 1.98 0 3.73 0.19 1.75 0.19 3.05 0.49 1.98 0.61 1.98 2.14 0 1.9-2.74 1.9l-28.49 0.08q-5.94 0-5.94-5.87v-5.02q-1.06-1.75-4.19-2.52-1.44-0.3-1.44-1.06 0-0.53 0.57-0.92 0.57-0.38 1.79-0.38 2.74 0 4.45 0.16 1.72 0.15 3.62 0.99 4.87-0.16 10.17-0.27 5.29-0.12 10.09-0.27 0.45 0 0.84-0.45v-8.69q-1.45 0-3.7 0.04-2.24 0.04-4.64 0.12-2.4 0.07-4.69 0.19-2.28 0.11-3.73 0.26-1.75 0.16-3.2 0.65-1.44 0.5-2.82 1.26-1.06-0.23-2.2-0.73-1.15-0.49-2.17-1.03-1.03-0.53-1.83-1.02-0.8-0.5-1.18-0.8-0.46-0.46-0.46-0.99 0-1.07 1.98-0.69 1.98 0.31 3.81 0.34 1.83 0.04 3.58 0.04 1.52 0 3.58 0 2.05 0 4.38-0.04 2.32-0.03 4.68-0.07 2.36-0.04 4.49-0.19 1.37-0.08 2.71-0.46 1.33-0.38 1.71-0.68 1.07-0.08 2.32 0 1.26 0.07 2.1 0.22 1.37 0.23 1.44 0.84 0.08 0.61-0.07 1.22-0.15 1.07-0.5 1.9-0.34 0.84-0.57 2.14z"/>
			<path id="&lt;Compound Path&gt;" class="s0" d="m311.31 135.43h3.78v27.07h14.13v3.37h-17.91z"/>
			<path id="&lt;Compound Path&gt;" fill-rule="evenodd" class="s0" d="m342.12 165.87l11.14-30.44h3.99l11.14 30.44h-3.99l-3.04-8.58h1.69v-3.32h-2.87l-4.82-13.62h-0.25l-4.83 13.62h-2.82v3.32h1.65l-3.04 8.58zm19.24-8.58l-1.17-3.32h-9.91l-1.17 3.32z"/>
			<path id="&lt;Compound Path&gt;" class="s0" d="m376.01 135.43h3.83l6.35 24.63h0.29l6.43-24.63h4.25l6.47 24.63h0.25l6.35-24.63h3.83l-8.33 30.44h-3.91l-6.64-24.09h-0.25l-6.68 24.09h-3.91z"/>
			<path id="&lt;Compound Path&gt;" class="s0" d="m446.12 135.43h3.78v13.54h16.1v-13.54h3.83v30.44h-3.83v-13.58h-16.1v13.58h-3.78z"/>
			<path id="&lt;Compound Path&gt;" fill-rule="evenodd" class="s0" d="m482.51 165.87l11.14-30.44h4l11.14 30.44h-4l-3.03-8.58h1.69v-3.32h-2.87l-4.83-13.62h-0.25l-4.82 13.62h-2.83v3.32h1.65l-3.04 8.58zm19.25-8.58l-1.18-3.32h-9.9l-1.18 3.32z"/>
			<path id="&lt;Compound Path&gt;" class="s0" d="m545.69 165.87h-3.62l-16.48-23.71h-0.29v23.71h-3.78v-30.44h3.65l16.48 23.75h0.3v-23.75h3.74z"/>
			<path id="&lt;Compound Path&gt;" class="s0" d="m561.02 135.43h3.79v15.05h0.38l13.53-15.05h4.96l-12.74 13.75 12.74 16.69h-4.62l-10.47-14.09-3.78 4.29v9.8h-3.79z"/>
			<path id="&lt;Compound Path&gt;" class="s0" d="m598.09 135.43l8.37 14.12h0.38l8.36-14.12h4.38l-11.02 17.95v12.49h-3.82v-12.49l-10.98-17.95z"/>
			<path id="&lt;Compound Path&gt;" class="s0" d="m655.97 135.43v20.14q0 3.11-1.47 5.57-1.47 2.46-4.16 3.86-2.69 1.41-6.22 1.41-3.53 0-6.22-1.41-2.7-1.4-4.17-3.86-1.47-2.46-1.47-5.57v-20.14h3.79v19.84q0 2.21 0.96 3.92 0.97 1.72 2.81 2.7 1.84 0.99 4.3 0.99 2.46 0 4.3-0.99 1.83-0.98 2.79-2.7 0.96-1.71 0.98-3.92v-19.84z"/>
			<path id="&lt;Compound Path&gt;" class="s0" d="m671.31 135.43h3.78v27.07h14.13v3.37h-17.91z"/>
		</g>
		<g id="&lt;Group&gt;">
			<path id="&lt;Path&gt;" class="s1" d="m74.48 0.32c-41.04 0-74.43 33.39-74.43 74.43v96.93h5.7v-96.93c0-37.9 30.83-68.73 68.73-68.73 37.9 0 68.74 30.83 68.74 68.73v91.23h-43.24-22.65v-20.09h29.53l-16.72-28.27h12.22l-19-25.81h7.86l-16.74-27.38-16.73 27.38h7.86l-19 25.81h12.22l-16.73 28.27h29.53v20.09h-37.33v5.7h37.33 5.7 22.65 48.94v-96.93c0-41.04-33.39-74.43-74.44-74.43z"/>
			<path id="&lt;Path&gt;" class="s1" d="m55.31 54.13c-1.99 4.35-6.38 7.37-11.48 7.37-6.97 0-12.64-5.65-12.64-12.62 0-6.21 4.49-11.38 10.38-12.44-0.74 1.6-1.15 3.37-1.15 5.25 0 6.98 5.66 12.64 12.63 12.64q1.17 0 2.26-0.2z"/>
		</g>
	</g>
</svg>