<svg version="1.2" xmlns="http://www.w3.org/2000/svg" viewBox="0 0 476 547" width="476" height="547">
	<style>
		.s0 { fill: #274125 } 
	</style>
	<g id="&lt;Group&gt;">
		<path id="&lt;Path&gt;" class="s0" d="m238 0.35c-130.77 0-237.16 106.39-237.16 237.16v308.83h18.16v-308.83c0-120.76 98.24-219 219-219 120.76 0 219 98.24 219 219v290.67h-137.76-72.16v-64.01h94.08l-53.28-90.08h38.93l-60.54-82.24h25.04l-53.31-87.21-53.32 87.21h25.05l-60.54 82.24h38.93l-53.28 90.08h94.08v64.01h-118.94v18.16h118.94 18.16 72.16 155.92v-308.83c0-130.77-106.39-237.16-237.16-237.16z"/>
		<path id="&lt;Path&gt;" class="s0" d="m176.92 171.79c-6.35 13.88-20.33 23.51-36.58 23.51-22.21 0-40.28-18.02-40.28-40.23 0-19.79 14.31-36.25 33.08-39.64-2.37 5.11-3.66 10.76-3.66 16.73 0 22.26 18.02 40.28 40.23 40.28q3.72 0 7.21-0.65z"/>
	</g>
</svg>