<svg version="1.2" xmlns="http://www.w3.org/2000/svg" viewBox="0 0 702 743" width="702" height="743">
	<style>
		.s0 { fill: #274b2b } 
		.s1 { fill: #274125 } 
	</style>
	<g id="&lt;Group&gt; copy 4">
		<g id="&lt;Group&gt;">
			<path id="&lt;Compound Path&gt;" fill-rule="evenodd" class="s0" d="m36.32 645.34q4.22-0.16 8.12-0.29 3.9-0.12 7.39-0.29 3.06-0.16 4.93-0.54 1.87-0.37 3.28-1.28 1.65 0.08 3.69 0.33 2.03 0.25 3.85 0.66 3.07 0.59 3.07 2.41 0 2.32-3.07 2.32-0.74 0-2.86-0.12-2.11-0.13-4.1-0.29-1.25-0.09-3.65-0.09-2.41 0-5.89 0-3.9 0.09-8.21 0.17-4.32 0.08-8.67 0.25-4.35 0.16-8.67 0.33-4.31 0.17-8.29 0.33-1.66 0.17-3.32 0.62-1.66 0.46-3.07 1.37-1.08-0.08-2.36-0.45-1.29-0.38-2.57-0.87-1.29-0.5-2.49-1.12-1.21-0.63-2.03-1.29-0.59-0.41-0.88-0.91-0.29-0.5-0.29-0.92 0-1.24 2.58-0.82 2.4 0.41 5.01 0.62 2.62 0.21 5.52 0.2 4.39 0.01 8.79-0.04 4.4-0.04 8.71-0.12v-8.79q0-1.5-1.49-2.45-1.5-0.95-4.56-2.03-1.58-0.58-1.58-1.33 0-0.41 0.62-0.91 0.62-0.5 1.87-0.5 0.83 0 2.24 0.08 1.41 0.09 2.98 0.25 1.58 0.17 3.11 0.42 1.54 0.25 2.62 0.58l-0.33 4.48zm12.11-29.95q1.57-0.16 2.86-0.49 1.28-0.33 1.86-0.75 1.16-0.08 2.62-0.04 1.45 0.04 2.36 0.21 1.57 0.16 1.87 0.74 0.29 0.58 0.12 1.16-0.33 1.17-0.7 1.99-0.38 0.83-0.54 1.75-1 4.56-2.12 9-1.12 4.43-2.53 8.08-0.58 1.41-1.24 2.03-0.67 0.63-1.25 0.59-0.58-0.05-0.87-0.67-0.29-0.62-0.12-1.62 0.41-2.32 0.74-4.43 0.33-2.12 0.54-4.27 0.21-2.16 0.38-4.57 0.16-2.4 0.33-5.3-2.49-0.17-6.47-0.17-3.98 0-8.21 0.12-4.23 0.13-8.09 0.38-3.86 0.25-6.1 0.49-1.66 0.17-3.11 0.5-1.45 0.34-2.78 1.16-0.99-0.25-2.19-0.74-1.21-0.5-2.24-1.04-1.04-0.54-1.91-1.08-0.87-0.54-1.2-0.87-0.5-0.5-0.5-1.08 0-1.16 1.91-0.74 1.9 0.33 3.65 0.37 1.74 0.04 3.4 0.04 3.31 0 7.46-0.04 4.15-0.04 8.26-0.17 4.1-0.12 7.75-0.24 3.65-0.13 6.06-0.3zm-30.45 54q0-3.07 1.37-5.72 1.37-2.66 3.74-4.65 2.36-1.99 5.59-3.15 3.24-1.16 6.97-1.16 3.73 0 6.97 1.16 3.23 1.16 5.6 3.15 2.36 1.99 3.73 4.65 1.37 2.65 1.37 5.72 0 3.07-1.37 5.81-1.37 2.73-3.73 4.77-2.37 2.03-5.6 3.23-3.24 1.2-6.97 1.2-3.73 0-6.97-1.2-3.23-1.2-5.59-3.23-2.37-2.04-3.74-4.77-1.37-2.74-1.37-5.81zm5.64 0q0 2.32 0.96 4.31 0.95 1.99 2.57 3.45 1.62 1.45 3.86 2.28 2.24 0.83 4.72 0.83 2.49 0 4.73-0.83 2.24-0.83 3.9-2.28 1.66-1.46 2.61-3.45 0.96-1.99 0.96-4.31 0-2.32-0.96-4.31-0.95-1.99-2.61-3.44-1.66-1.46-3.9-2.28-2.24-0.83-4.73-0.83-2.48 0-4.72 0.83-2.24 0.82-3.86 2.28-1.62 1.45-2.57 3.44-0.96 1.99-0.95 4.31z"/>
			<path id="&lt;Compound Path&gt;" fill-rule="evenodd" class="s0" d="m97.44 633.57q0 2.57 2.16 2.4l19.41-0.5q1.91-0.16 3.48-0.74 1.58-0.58 1.99-1.16 1.66 0 3.61 0.12 1.95 0.12 3.61 0.46 2.49 0.41 2.49 2.24 0 2.15-2.99 2.15l-16.59 0.25v10.54q3.65-0.17 7.01-0.3 3.36-0.12 6.51-0.29 3.07-0.16 4.94-0.53 1.86-0.38 3.28-1.29 1.65 0.08 3.69 0.33 2.03 0.25 3.85 0.67 3.07 0.58 3.07 2.4 0 2.32-3.07 2.32-0.74 0-2.86-0.12-2.11-0.13-4.1-0.29-1.25-0.08-3.65-0.09-2.41 0-5.89 0-3.9 0.09-8.21 0.17-4.32 0.08-8.67 0.25-4.36 0.17-8.67 0.33-4.31 0.17-8.29 0.33-1.66 0.17-3.32 0.63-1.66 0.45-3.07 1.36-1.08-0.08-2.36-0.45-1.29-0.38-2.58-0.87-1.28-0.5-2.48-1.12-1.21-0.62-2.04-1.29-0.58-0.41-0.87-0.91-0.29-0.5-0.29-0.91 0-1.25 2.57-0.83 2.41 0.41 5.02 0.62 2.61 0.21 5.52 0.21 10.03 0 19.49-0.25v-10.54l-11.03 0.17q-6.31 0.17-6.31-7.05v-9.54q0-1.99-6.3-3.57-1.66-0.41-1.66-1.24 0-0.66 0.58-1.24 0.58-0.58 1.74-0.67 1.5-0.08 3.16 0 1.65 0.09 3.15 0.25 1.49 0.17 2.74 0.42 1.24 0.24 1.9 0.49 5.31-0.16 10.16-0.25 4.86-0.08 10.08-0.24 1.74 0 3.15-0.5 1.41-0.5 2.33-1.41 1.65 0 3.48 0.12 1.82 0.13 3.48 0.46 2.49 0.41 2.49 2.32 0 2.16-2.98 2.16-8.3 0.08-15.93 0.16-7.63 0.09-15.93 0.25zm-2.98 37.99q0-2.98 1.37-5.51 1.37-2.53 3.73-4.36 2.36-1.82 5.56-2.82 3.19-0.99 6.92-0.99 3.74 0 6.93 0.99 3.19 1 5.56 2.82 2.36 1.83 3.73 4.36 1.37 2.53 1.37 5.51 0 2.99-1.37 5.56-1.37 2.57-3.73 4.44-2.37 1.86-5.56 2.94-3.19 1.08-6.93 1.08-3.73 0-6.92-1.08-3.2-1.08-5.56-2.94-2.36-1.87-3.73-4.44-1.37-2.57-1.37-5.56zm5.8 0q0 4.48 3.36 7.09 3.36 2.62 8.42 2.62 5.06 0 8.42-2.62 3.36-2.61 3.36-7.09 0-4.48-3.36-7.09-3.36-2.61-8.42-2.61-5.06 0-8.42 2.61-3.36 2.61-3.36 7.09z"/>
			<path id="&lt;Compound Path&gt;" fill-rule="evenodd" class="s0" d="m190.42 621.21v18q0 1.07-0.04 2.9-0.04 1.82-0.37 3.61-0.33 1.78-1.04 3.11-0.7 1.32-2.03 1.32-1.41 0-1.82-3.31l-19.08 0.58q-0.33 1.66-1.04 2.9-0.7 1.24-1.95 1.24-1.91 0-1.9-5.8v-20.24q-0.01-1.49-1.33-2.45-1.33-0.95-4.4-2.11-0.66-0.33-1.12-0.62-0.45-0.29-0.45-0.71 0-0.41 0.62-0.91 0.62-0.5 1.86-0.5 0.58 0 2.04 0.08 1.45 0.09 3.15 0.29 1.7 0.21 3.19 0.42 1.49 0.21 2.16 0.45l-0.33 4.48v4.32l18.49-0.42v-5.06q0-1.49-1.32-2.73-1.33-1.25-4.4-2.41-0.66-0.33-1.12-0.62-0.46-0.29-0.46-0.71 0-0.41 0.63-0.91 0.62-0.5 1.86-0.5 0.58 0 2.08 0.17 1.49 0.17 3.19 0.46 1.7 0.29 3.23 0.62 1.54 0.33 2.04 0.58zm-23.89 20.77q0 0.79-0.08 1.71l18.57-0.34v-11.86l-18.49 0.42c0 0.38 0 9.55 0 10.07zm46.94 16.39v14.01q0 1.08-0.04 2.91-0.04 1.82-0.37 3.61-0.33 1.78-1.04 3.11-0.7 1.32-2.03 1.32-1.49 0-1.82-3.15l-23.89 0.17q-0.33 1.65-1.04 2.9-0.7 1.24-1.95 1.24-1.91 0-1.91-5.8v-16.67q0-1.5-1.2-2.41-1.2-0.91-4.27-2.07-0.66-0.33-1.12-0.63-0.46-0.28-0.46-0.7 0-0.41 0.63-0.91 0.62-0.5 1.86-0.5 0.58 0 2.03 0.08 1.46 0.09 3.07 0.25 1.62 0.17 3.07 0.37 1.45 0.21 2.12 0.46l-0.33 4.48v3.07l23.3-0.08v-3.49q0-1.49-1.12-2.57-1.12-1.08-4.19-2.24-0.66-0.33-1.11-0.62-0.46-0.29-0.46-0.71 0-0.41 0.62-0.91 0.62-0.5 1.87-0.5 0.58 0 2.03 0.13 1.45 0.12 3.07 0.33 1.62 0.21 3.07 0.5 1.45 0.29 1.95 0.54zm-28.7 16.63q0 0.7-0.08 1.62h23.39v-9.54l-23.31 0.08c0 0.33 0 7.37 0 7.84zm29.03-59.51v22.39q0 1.33-0.04 3.48-0.05 2.16-0.38 4.23-0.33 2.08-1.03 3.61-0.71 1.54-2.04 1.54-1.9 0-1.9-7.05v-10.29q-1.66 0.09-3.44 0.17-1.79 0.08-2.45 0.16-0.92 0.17-1.58 0.46-0.66 0.29-1.57 0.95-0.5 0-1.54-0.33-1.04-0.33-2.11-0.74-1.08-0.42-2.04-0.92-0.95-0.49-1.36-0.91-0.83-0.66-0.67-1.41 0.17-0.75 1.41-0.66 1.33 0.08 3.15 0.08 1.83 0 3.9 0 2.08 0 4.19-0.04 2.12-0.04 4.11-0.13v-13.02q0-1.49-1.54-2.74-1.53-1.24-4.6-2.4-0.67-0.33-1.12-0.62-0.46-0.29-0.46-0.71 0-0.41 0.63-0.91 0.62-0.5 1.86-0.5 0.58 0 2.16 0.17 1.57 0.16 3.36 0.45 1.78 0.3 3.36 0.63 1.57 0.33 2.07 0.58z"/>
			<path id="&lt;Compound Path&gt;" fill-rule="evenodd" class="s0" d="m283.82 643.77q0.58 0 1.49-0.13 0.91-0.12 1.83-0.33 0.91-0.21 1.74-0.5 0.83-0.29 1.33-0.7 1.41-0.08 3.4 0.12 1.99 0.21 3.15 0.46 1.32 0.25 2.36 0.87 1.04 0.62 0.87 2.03-0.16 1.41-1.57 1.95-1.41 0.54-3.49 0.38-1.08-0.09-2.65-0.17-1.58-0.08-3.28-0.13-1.7-0.04-3.4-0.08-1.7-0.04-2.94-0.04h-5.48v0.5q0 1.66-0.04 4.06-0.04 2.41-0.62 4.32 1.91-0.17 3.57-0.25 1.65-0.09 2.32-0.25 1.41-0.17 1.95 0.29 0.54 0.46 0.54 1.03 0 0.59-0.29 1.37-0.29 0.79-0.71 1.7-0.41 1.5-1.12 3.61-0.7 2.12-1.28 3.36 0.66-0.08 1.41-0.08 0.74 0 1.28 0.21 0.54 0.2 0.91 0.62 0.38 0.41 0.3 1.16-0.09 1.16-1.12 1.57-1.04 0.42-2.62 0.25-9.37 0-16.83 0.17-7.47 0.17-12.7 0.41-0.08 0.42-0.08 1.04 0 0.62 0 0.71v4.56q0 2.24 1.74 2.24 2.32 0.08 4.98 0.08 2.65 0 5.35-0.08 2.69-0.09 5.23-0.21 2.52-0.13 4.6-0.29 1.33-0.17 2.94-0.62 1.62-0.46 2.53-1.37 1.16-0.17 3.2-0.04 2.03 0.12 3.19 0.29 1.24 0.16 2.41 0.7 1.16 0.54 1.16 1.79 0 2.81-4.23 2.65-2.16-0.08-6.1-0.04-3.94 0.04-8.5 0.12-4.56 0.09-9.17 0.17-4.6 0.08-8 0.08-3.49 0.25-5.35-1.37-1.87-1.61-1.87-5.1v-3.4q-0.58-1.41-1.91-2.03-1.32-0.62-2.73-1.04-1.91-0.49-1.79-1.53 0.13-1.04 2.04-1.2 0.91-0.09 2.32 0 1.41 0.08 2.94 0.16 1.54 0.08 3.03 0.21 1.49 0.12 2.57 0.12 2.82 0.09 6.43 0 3.61-0.08 7.05-0.2 3.44-0.13 6.35-0.25 2.9-0.13 4.39-0.21 0.17-1.66 0.29-3.86 0.13-2.19 0.13-3.85-2.24-0.09-5.02-0.05-2.78 0.05-5.64 0.17-2.86 0.13-5.6 0.33-2.74 0.21-4.98 0.38-2.32 0.16-4.23 0.78-1.91 0.63-2.73 1.04-0.83-0.25-1.95-0.71-1.12-0.45-2.2-0.99-1.08-0.54-1.99-1.12-0.92-0.58-1.33-1-0.58-0.49-0.66-0.99-0.09-0.5 0.16-0.87 0.25-0.37 0.71-0.54 0.45-0.17 0.95-0.08 0.5 0.08 1.37 0.2 0.87 0.13 1.78 0.25 0.92 0.13 1.79 0.25 0.87 0.13 1.37 0.13 0.66 0.08 1.41 0.08 0.74 0 1.57 0-0.25-1.08-0.25-2.82v-6.3q-2.4 0.16-4.35 0.2-1.95 0.04-3.11 0.21-2.08 0.17-3.98 0.79-1.91 0.62-2.74 1.03-0.91-0.24-2.07-0.74-1.17-0.5-2.33-1.08-1.16-0.58-2.15-1.2-1-0.63-1.41-1.12-1-1.08-0.38-1.74 0.63-0.67 1.54-0.5 0.5 0.08 1.49 0.2 1 0.13 2.12 0.21 1.12 0.09 2.15 0.17 1.04 0.08 1.54 0.08 12.11 0.17 23.22 0.08 11.11-0.08 22.48-0.74zm-31.35-8.38q2.32 0.08 5.01 0.04 2.7-0.04 5.44-0.12 2.73-0.08 5.39-0.17 2.65-0.08 4.89-0.25 1.25-0.08 2.99-0.58 1.74-0.5 2.65-1.41 1.16-0.16 3.15-0.16 1.99 0 3.16 0.16 1.24 0.17 2.4 0.75 1.16 0.58 1.16 1.99 0 1.33-1.28 2.07-1.29 0.75-3.36 0.67-2.16-0.09-6.14-0.05-3.98 0.05-8.58 0.13-4.61 0.08-9.25 0.17-4.65 0.08-8.05 0.08-3.48 0.25-5.35-1.33-1.86-1.57-1.86-5.06v-3.07q-1-1.41-2.58-2.2-1.57-0.78-2.98-1.12-0.92-0.24-1.37-0.66-0.46-0.41-0.41-0.87 0.04-0.46 0.53-0.79 0.5-0.33 1.5-0.41 0.91-0.08 2.4 0 1.5 0.08 3.11 0.21 1.62 0.12 3.2 0.24 1.57 0.13 2.65 0.21 2.99 0.17 6.84 0.17 3.86 0 7.59-0.13 3.74-0.12 6.85-0.33 3.11-0.21 4.52-0.46 0.33-1.65 0.54-3.44 0.2-1.78 0.29-3.69-2.49-0.16-5.69-0.16-3.19 0-6.42 0.12-3.24 0.13-6.23 0.33-2.98 0.21-5.22 0.46-2.07 0.16-4.02 0.74-1.95 0.59-2.78 1-0.92-0.25-1.91-0.66-0.99-0.42-1.99-0.96-1-0.54-1.83-1.08-0.83-0.53-1.24-1.03-0.99-1.08-0.41-1.74 0.58-0.67 1.57-0.5 0.5 0.08 1.33 0.16 0.83 0.09 1.7 0.17 0.87 0.08 1.7 0.17 0.83 0.08 1.33 0.08 3.23 0.17 7.25 0.12 4.03-0.04 7.93-0.12 3.89-0.08 7.13-0.21 3.23-0.12 4.89-0.21 2.41-0.16 4.81-0.29 2.41-0.12 3.24-0.29 1.41-0.16 1.95 0.29 0.54 0.46 0.54 1.04 0 0.58-0.34 1.37-0.33 0.79-0.66 1.7-0.66 1.66-1.37 3.23-0.7 1.58-1.53 2.99 1.41-0.25 2.65 0.12 1.25 0.38 1.33 1.87 0.08 1.16-0.71 1.74-0.78 0.58-1.86 0.58-4.73-0.08-9.29-0.04-4.56 0.04-8.67 0.13-4.11 0.08-7.67 0.2-3.57 0.13-6.22 0.21-0.09 0.91-0.09 1.16 0 0.25 0 0.33v4.23q0 2.16 1.75 2.16zm19.65 21.23q-0.16-0.66-0.24-1.49-0.09-0.83-0.09-1.82v-5.81q-3.65 0.08-7.38 0.12-3.73 0.05-7.22 0.13v0.91q0 1.66-0.04 4.07-0.04 2.4-0.62 4.31 4.4 0 8.54-0.13 4.15-0.12 7.05-0.29z"/>
			<path id="&lt;Compound Path&gt;" class="s0" d="m306.88 663.18q-0.58 0.49-1.25 0.54-0.66 0.04-1.08-0.21-0.41-0.25-0.45-0.83-0.04-0.58 0.7-1.33 3.4-3.23 6.72-7.42 3.32-4.19 6.1-8.67 2.78-4.48 4.89-9.04 2.12-4.56 3.11-8.71 0.08-0.33 0.17-0.83 0.08-0.5 0.08-0.66 0-0.67-1.28-1.83-1.29-1.16-3.94-1.99-1.41-0.49-1.41-1.41 0-0.5 0.58-0.87 0.58-0.37 1.57-0.37 1 0 2.86 0.37 1.87 0.37 3.74 0.91 1.86 0.54 3.4 1.12 1.53 0.58 2.03 1 0 0.41-0.21 1.16-0.21 0.75-0.37 1.58-1.49 6.05-5.23 12.69 0.75 0.74 1.87 1.9 1.12 1.17 2.32 2.37 1.2 1.2 2.24 2.2 1.04 0.99 1.62 1.49 0.66 0.5 1.41 0.99 0.74 0.5 1.41 0.75 0.91 0.33 1.41 0.62 0.5 0.29 0.91 0.87 1.83 2.49 2.9 4.81 1.08 2.33 1.5 4.73 0.25 1.66-1.5 1.83-1.24 0.08-3.73-2.99l-14.02-16.59q-3.89 6.39-8.87 12.11-4.98 5.73-10.2 9.71zm54.66-47.7v24.8q0.66-0.08 1.24-0.08 0.58 0 0.91 0 1.83-0.16 3.28-0.75 1.45-0.58 2.03-1.32 1.16 0 2.95 0.12 1.78 0.13 3.19 0.29 2.41 0.42 2.41 2.41 0 2.15-2.91 2.15-2.98 0.09-6.51 0.13-3.53 0.04-6.59 0.12v20.41q0 1.08 0 2.9 0 1.83-0.09 3.98-0.08 2.16-0.33 4.36-0.25 2.19-0.62 3.98-0.37 1.78-1 2.9-0.62 1.12-1.53 1.12-1.82 0-1.82-10.29v-55.65q0-1.49-1.54-2.74-1.53-1.24-4.6-2.4-0.67-0.33-1.12-0.63-0.46-0.28-0.46-0.7 0-0.41 0.62-0.91 0.63-0.5 1.87-0.5 0.58 0 2.16 0.17 1.57 0.16 3.36 0.45 1.78 0.29 3.36 0.62 1.57 0.34 2.07 0.58z"/>
			<path id="&lt;Compound Path&gt;" fill-rule="evenodd" class="s0" d="m414.37 654.05q-3.81 0.17-7.59 0.33-3.77 0.17-7.5 0.34-1.66 0.16-3.36 0.62-1.7 0.45-3.2 1.37-1.16-0.09-2.48-0.46-1.33-0.37-2.66-0.91-1.33-0.54-2.53-1.16-1.2-0.62-2.11-1.29-0.58-0.41-0.87-0.95-0.29-0.54-0.29-0.96 0-1.24 2.65-0.83 2.41 0.42 5.14 0.63 2.74 0.2 5.73 0.2 10.61 0 19.86-0.2 9.25-0.21 17.63-0.63 3.15-0.16 5.06-0.62 1.9-0.45 3.4-1.37 1.65 0.09 3.77 0.34 2.12 0.24 4.02 0.66 3.16 0.66 3.16 2.57 0 2.57-3.16 2.57-0.83 0-2.69-0.12-1.87-0.13-4.52-0.38-1.08-0.08-3.65-0.12-2.57-0.04-6.22-0.04l-11.95 0.25v14.76q0 1.49-0.04 4.11-0.04 2.61-0.41 5.1-0.38 2.49-1.12 4.31-0.75 1.82-2.16 1.83-1.91 0-1.91-9.38zm21.9-32.35q-0.33 3.32-0.75 7.01-0.41 3.7-0.91 8.09 2.65 0.42 2.66 2.16-0.01 1.91-3.07 2.07-3.4-0.08-7.51-0.04-4.11 0.04-8.34 0.08-4.23 0.04-8.29 0.13-4.07 0.08-7.38 0.16-0.09 0.75-0.91 1.87-0.84 1.12-1.75 1.12-1.16 0-1.82-1.04-0.67-1.03-0.83-2.45l-1.74-19.65q-0.58-1.16-1.79-1.87-1.2-0.7-2.44-1.12-0.83-0.25-1.25-0.7-0.41-0.46-0.41-0.96 0-0.5 0.41-0.87 0.42-0.37 1.33-0.37 0.91 0 2.24 0.04 1.33 0.04 2.82 0.17 1.49 0.12 2.99 0.29 1.49 0.16 2.9 0.33 2.4 0.08 5.35 0.08 2.94 0 5.97-0.08 3.03-0.08 5.89-0.21 2.86-0.12 5.1-0.29 1.58-0.17 3.07-0.5 1.49-0.33 2.07-0.74 1.16-0.09 2.91-0.05 1.74 0.05 2.65 0.21 1.58 0.17 1.87 0.75 0.29 0.58 0.12 1.16-0.25 1.24-0.62 2.57-0.37 1.33-0.54 2.65zm-7.8 15.68q0.58-0.08 0.75-0.21 0.17-0.12 0.33-0.37l0.17-17.67q-2.74 0-6.6 0.05-3.85 0.04-7.79 0.08-3.94 0.04-7.43 0.16-3.48 0.13-5.47 0.21-0.08 0.91-0.08 1.29 0 0.37 0 0.62l0.41 16.59q1.83 0 5.06-0.04 3.23-0.04 6.93-0.09 3.69-0.04 7.38-0.2 3.69-0.17 6.34-0.42z"/>
			<path id="&lt;Compound Path&gt;" class="s0" d="m497.98 664.09q3.15-0.17 6.1-0.25 2.94-0.08 5.59-0.25 3.07-0.16 4.94-0.54 1.87-0.37 3.28-1.28 1.65 0.08 3.69 0.33 2.03 0.25 3.85 0.66 3.07 0.58 3.07 2.41 0 2.32-3.07 2.32-0.74 0-2.86-0.12-2.11-0.13-4.1-0.29-1.25-0.09-3.65-0.09-2.41 0-5.89 0-3.9 0.09-8.21 0.17-4.32 0.08-8.67 0.25-4.36 0.16-8.67 0.33-4.31 0.17-8.29 0.33-1.66 0.17-3.32 0.62-1.66 0.46-3.07 1.37-1.08-0.08-2.36-0.46-1.29-0.37-2.58-0.87-1.28-0.49-2.48-1.12-1.21-0.62-2.03-1.28-0.59-0.42-0.88-0.91-0.29-0.5-0.29-0.92 0-1.24 2.57-0.83 2.41 0.42 5.02 0.63 2.61 0.2 5.52 0.2 5.39 0 10.74-0.04 5.35-0.04 10.57-0.21v-10.7q0.01-1.49-1.49-2.44-1.49-0.96-4.56-2.03-1.58-0.58-1.58-1.33 0-0.42 0.63-0.91 0.62-0.5 1.86-0.5 0.83 0 2.24 0.08 1.41 0.09 2.99 0.25 1.57 0.17 3.11 0.41 1.53 0.25 2.61 0.59l-0.33 4.47zm-5.81-41.38q0.17-0.58 0.09-1-0.17-0.75-1.66-1.82-1.5-1.08-2.99-1.83-1.33-0.75-1.24-1.57 0.08-0.5 0.79-0.83 0.7-0.33 1.61-0.17 1.41 0.17 3.28 0.66 1.87 0.5 3.61 1.12 1.74 0.63 3.19 1.25 1.45 0.62 1.95 1.12-0.08 0.49-0.37 1.28-0.3 0.79-0.46 1.29-1.74 4.23-4.89 8.13 1.16 0.66 2.78 1.53 1.61 0.87 3.23 1.74 1.62 0.87 3.07 1.58 1.45 0.7 2.2 1.04 0.91 0.41 1.7 0.41 0.78 0 1.45 0.08 0.74 0.09 1.49 0.29 0.75 0.21 1.41 0.63 2.9 1.9 5.35 3.89 2.45 2 4.02 3.82 0.92 0.99 0.59 2.2-0.34 1.2-1.66 1.45-0.67 0.17-1.62-0.13-0.96-0.28-2.45-1.2l-23.97-14.43q-2.82 3.15-6.14 5.97-3.32 2.82-6.88 5.27-3.57 2.45-7.13 4.44-3.57 1.99-6.81 3.31-0.99 0.42-1.65 0.34-0.67-0.09-0.96-0.46-0.29-0.37-0.08-0.91 0.21-0.54 1.04-1.04 3.64-2.24 7.63-5.06 3.98-2.82 7.75-6.26 3.77-3.44 7.05-7.47 3.28-4.02 5.68-8.66z"/>
			<path id="&lt;Compound Path&gt;" fill-rule="evenodd" class="s0" d="m565.66 629.58q-1.66-0.24-3.77-1.24-2.12-0.99-3.53-2.16-0.99-0.82-0.83-1.74 0.08-0.41 0.5-0.74 0.41-0.34 1.49-0.17 1.74 0.33 4.11 0.5 2.36 0.16 4.52 0.16 2.32 0 4.89-0.08 2.57-0.08 5.06-0.17 2.49-0.08 4.77-0.2 2.28-0.13 3.94-0.21 2.32-0.25 4.02-0.54 1.7-0.29 2.87-1.2 1.16 0.08 2.94 0.25 1.78 0.16 3.11 0.49 2.41 0.67 2.41 2.41 0 2.57-2.41 2.57-0.58 0-2.4-0.17-1.83-0.16-3.32-0.33-1.25-0.16-3.44-0.12-2.2 0.04-4.36 0.04-1.66 0-3.56 0.08-1.91 0.09-3.9 0.21-1.99 0.12-3.98 0.25-2 0.12-3.65 0.29-1.33 0.17-2.82 0.54-1.5 0.37-2.66 1.28zm0 13.94q0-2.65 1.08-4.94 1.08-2.28 3.07-3.98 1.99-1.7 4.81-2.65 2.82-0.95 6.22-0.96 3.4 0.01 6.18 0.96 2.78 0.95 4.77 2.65 1.99 1.7 3.11 3.98 1.12 2.29 1.12 4.94 0 2.65-1.12 4.89-1.12 2.24-3.11 3.9-1.99 1.66-4.81 2.61-2.82 0.96-6.14 0.96-3.4 0-6.18-0.96-2.78-0.95-4.77-2.61-1.99-1.66-3.11-3.9-1.12-2.24-1.12-4.89zm24.14-27.21q0 1-1.12 1.7-1.12 0.71-2.53 0.71-0.91 0-2.41 0-1.49 0-3.11 0.04-1.62 0.04-3.15 0.08-1.53 0.05-2.53 0.13-0.66-0.25-1.45-0.71-0.79-0.45-1.62-1.03-0.83-0.58-1.53-1.21-0.71-0.62-1.04-1.12-0.58-0.74-0.17-1.37 0.42-0.62 1.91-0.29 0.67 0.17 1.99 0.34 1.33 0.16 2.33 0.33 0.82 0.16 2.15 0.21 1.33 0.04 2.82 0.08 1.49 0.04 3.03 0.04 1.53 0 2.94 0 3.49 0 3.49 2.07zm-18.58 26.96q0 3.9 2.65 6.26 2.66 2.37 6.97 2.37 4.23 0 6.88-2.37 2.66-2.36 2.66-6.26 0-3.81-2.66-6.14-2.65-2.32-6.88-2.32-4.31 0-6.97 2.32-2.65 2.33-2.65 6.14zm9.29 25.8q0-1.5-1.49-2.45-1.5-0.95-4.57-2.03-1.57-0.58-1.57-1.33 0-0.42 0.62-0.91 0.62-0.5 1.87-0.5 0.58 0 2.15 0.12 1.58 0.13 3.36 0.29 1.78 0.17 3.36 0.42 1.58 0.25 2.07 0.5l-0.33 4.48v8.37q0 2.32 2.16 2.33l15.76-0.09q1.57 0 3.07-0.54 1.49-0.54 2.32-1.28 2.4 0 4.69 0.21 2.28 0.2 3.44 0.53 0.83 0.33 1.37 0.87 0.54 0.54 0.54 1.29 0 2.24-2.99 2.24l-29.69 0.08q-6.56 0-6.14-7.05zm33.18-53.58v23.31q0.66-0.08 1.24-0.08 0.58 0 0.91 0 1.83-0.17 3.28-0.75 1.45-0.58 2.03-1.33 1.16 0 2.94 0.13 1.79 0.12 3.2 0.29 2.4 0.41 2.4 2.4 0 2.16-2.9 2.16-2.99 0.08-6.51 0.12-3.53 0.05-6.59 0.13v10.78q0 1.33-0.05 3.57-0.04 2.24-0.37 4.39-0.33 2.16-1.04 3.74-0.7 1.57-2.03 1.57-1.91 0-1.91-7.05v-41.8q0-1.5-1.53-2.74-1.54-1.24-4.6-2.41-0.67-0.33-1.12-0.62-0.46-0.29-0.46-0.7 0-0.42 0.62-0.91 0.62-0.5 1.87-0.5 0.58 0 2.16 0.16 1.57 0.17 3.35 0.46 1.79 0.29 3.36 0.62 1.58 0.33 2.08 0.58z"/>
			<path id="&lt;Compound Path&gt;" class="s0" d="m695.72 615.48v21.07q0 1.33-0.04 3.57-0.05 2.24-0.38 4.39-0.33 2.16-1.03 3.74-0.71 1.57-2.04 1.57-1.9 0-1.9-7.05v-1.24q-0.58 0-1.83 0.08-1.24 0.09-2.53 0.17-1.28 0.08-2.45 0.16-1.16 0.09-1.65 0.09-0.92 0.16-1.58 0.45-0.67 0.29-1.58 0.96-0.49 0-1.7-0.34-1.2-0.33-2.48-0.74-1.29-0.42-2.41-0.91-1.12-0.5-1.54-0.92-0.82-0.66-0.66-1.37 0.17-0.7 1.41-0.7 1.5 0.08 3.86 0.08 2.36 0 5.02-0.04 2.65-0.04 5.31-0.12 2.65-0.09 4.81-0.17v-9.54q-0.5 0-1.62 0.08-1.12 0.09-2.32 0.17-1.21 0.08-2.24 0.17-1.04 0.08-1.54 0.08-0.91 0.17-1.57 0.46-0.67 0.29-1.58 0.95-0.5 0-1.53-0.33-1.04-0.33-2.12-0.75-1.08-0.41-2.07-0.91-1-0.5-1.41-0.91-0.17-0.09-0.42-0.34-3.32 5.48-7.3 9.96-3.98 4.48-8.21 8.08-4.23 3.61-8.62 6.47-4.4 2.87-8.55 5.11-1.08 0.58-1.74 0.54-0.66-0.05-0.87-0.42-0.21-0.37 0.04-1 0.25-0.62 1.08-1.12 4.15-2.65 8.5-6.13 4.36-3.49 8.34-7.67 3.98-4.19 7.34-8.96 3.36-4.77 5.51-10-1.41 0-3.19 0.04-1.78 0.05-3.69 0.13-1.91 0.08-3.77 0.21-1.87 0.12-3.28 0.29-1.66 0.16-3.11 0.58-1.45 0.41-2.78 1.24-1-0.25-2.16-0.7-1.16-0.46-2.24-0.96-1.07-0.49-1.9-1.03-0.83-0.54-1.16-0.88-0.5-0.49-0.5-1.07 0-1.16 1.9-0.75 1.91 0.33 3.66 0.37 1.74 0.04 3.4 0.04 1.49 0 3.69-0.04 2.19-0.04 4.68-0.16 2.49-0.13 5.02-0.21 2.53-0.08 4.52-0.25 1.33-0.08 2.32-0.5 1-0.41 1.41-0.66 0.75 0 1.95 0.08 1.2 0.09 2.37 0.25 1.49 0.25 1.66 1.24 0.08 0.59-0.34 1.17-0.41 0.58-0.91 1.32-0.17 0.34-0.41 0.71-0.25 0.37-0.42 0.79-0.33 0.58-0.58 1.12-0.25 0.54-0.58 1.03h0.08q1.5 0.09 3.61 0.09 2.12 0 4.44-0.05 2.32-0.04 4.73-0.12 2.4-0.08 4.48-0.17v-8.29q0-1.49-1.54-2.74-1.53-1.24-4.6-2.4-0.67-0.33-1.12-0.63-0.46-0.28-0.46-0.7 0-0.41 0.62-0.91 0.63-0.5 1.87-0.5 0.58 0 2.16 0.17 1.57 0.16 3.36 0.45 1.78 0.29 3.36 0.62 1.57 0.34 2.07 0.58zm-1.58 49.85q1.58 0.34 2.12 0.83 0.54 0.5 0.54 1.25 0 1.91-2.99 1.99l-26.79 0.58v7.71q0 2.08 2.16 2.08l16.92-0.09q2.32 0 3.94-0.66 1.61-0.66 2.36-1.33 2.16 0 4.06 0.21 1.91 0.21 3.32 0.54 2.16 0.66 2.16 2.32 0 2.07-2.99 2.08l-31.02 0.08q-6.47 0-6.47-6.39v-5.47q-1.16-1.91-4.56-2.74-1.58-0.33-1.57-1.16 0-0.58 0.62-1 0.62-0.41 1.95-0.41 2.98 0 4.85 0.17 1.86 0.16 3.94 1.07 5.31-0.16 11.07-0.29 5.77-0.12 10.99-0.29 0.5 0 0.91-0.49v-9.46q-1.57 0-4.02 0.04-2.45 0.04-5.06 0.13-2.61 0.08-5.1 0.2-2.49 0.13-4.06 0.29-1.91 0.17-3.49 0.71-1.57 0.54-3.07 1.37-1.16-0.25-2.4-0.79-1.25-0.54-2.37-1.12-1.12-0.58-1.99-1.12-0.87-0.54-1.28-0.87-0.5-0.5-0.5-1.08 0-1.16 2.16-0.75 2.15 0.34 4.14 0.38 1.99 0.04 3.9 0.04 1.66 0 3.9 0 2.24 0 4.77-0.04 2.53-0.04 5.1-0.09 2.57-0.04 4.89-0.2 1.5-0.08 2.95-0.5 1.45-0.42 1.87-0.75 1.16-0.08 2.53 0 1.36 0.09 2.28 0.25 1.49 0.25 1.57 0.91 0.08 0.67-0.08 1.33-0.17 1.16-0.54 2.07-0.37 0.92-0.62 2.33z"/>
		</g>
		<g id="&lt;Group&gt;">
			<path id="&lt;Compound Path&gt;" class="s0" d="m147.13 708.72h4.12v29.48h15.38v3.67h-19.5z"/>
			<path id="&lt;Compound Path&gt;" fill-rule="evenodd" class="s0" d="m180.68 741.87l12.13-33.15h4.35l12.13 33.15h-4.35l-3.3-9.34h1.84v-3.62h-3.13l-5.25-14.83h-0.28l-5.25 14.83h-3.08v3.62h1.8l-3.31 9.34zm20.96-9.34l-1.28-3.62h-10.79l-1.28 3.62z"/>
			<path id="&lt;Compound Path&gt;" class="s0" d="m217.59 708.72h4.17l6.91 26.83h0.32l7.01-26.83h4.62l7.05 26.83h0.28l6.91-26.83h4.17l-9.07 33.15h-4.25l-7.24-26.24h-0.27l-7.28 26.24h-4.26z"/>
			<path id="&lt;Compound Path&gt;" class="s0" d="m293.94 708.72h4.13v14.74h17.53v-14.74h4.17v33.15h-4.17v-14.79h-17.53v14.79h-4.13z"/>
			<path id="&lt;Compound Path&gt;" fill-rule="evenodd" class="s0" d="m333.59 741.87l12.13-33.15h4.35l12.13 33.15h-4.35l-3.31-9.34h1.85v-3.62h-3.13l-5.25-14.83h-0.28l-5.25 14.83h-3.08v3.62h1.8l-3.31 9.34zm20.96-9.34l-1.28-3.62h-10.79l-1.28 3.62z"/>
			<path id="&lt;Compound Path&gt;" class="s0" d="m402.39 741.87h-3.94l-17.94-25.83h-0.32v25.83h-4.12v-33.15h3.98l17.95 25.87h0.32v-25.87h4.07z"/>
			<path id="&lt;Compound Path&gt;" class="s0" d="m419.09 708.72h4.12v16.39h0.42l14.74-16.39h5.4l-13.87 14.97 13.87 18.18h-5.03l-11.41-15.34-4.12 4.67v10.67h-4.12z"/>
			<path id="&lt;Compound Path&gt;" class="s0" d="m459.47 708.72l9.11 15.38h0.41l9.11-15.38h4.76l-11.99 19.55v13.6h-4.17v-13.6l-11.95-19.55z"/>
			<path id="&lt;Compound Path&gt;" class="s0" d="m522.5 708.72v21.93q0 3.39-1.6 6.07-1.6 2.67-4.53 4.21-2.93 1.53-6.78 1.53-3.84 0-6.77-1.53-2.93-1.54-4.54-4.21-1.6-2.68-1.6-6.07v-21.93h4.12v21.61q0 2.4 1.06 4.27 1.05 1.86 3.05 2.94 2 1.08 4.68 1.08 2.68 0 4.68-1.08 2.01-1.08 3.05-2.94 1.04-1.87 1.06-4.27v-21.61z"/>
			<path id="&lt;Compound Path&gt;" class="s0" d="m539.21 708.72h4.12v29.48h15.38v3.67h-19.5z"/>
		</g>
		<g id="&lt;Group&gt;">
			<path id="&lt;Path&gt;" class="s1" d="m352 0.35c-130.77 0-237.16 106.39-237.16 237.16v308.83h18.16v-308.83c0-120.76 98.24-219 219-219 120.76 0 219 98.24 219 219v290.67h-137.76-72.16v-64.01h94.08l-53.28-90.08h38.93l-60.54-82.24h25.04l-53.31-87.21-53.32 87.21h25.05l-60.54 82.24h38.93l-53.28 90.08h94.08v64.01h-118.94v18.16h118.94 18.16 72.16 155.92v-308.83c0-130.77-106.39-237.16-237.16-237.16z"/>
			<path id="&lt;Path&gt;" class="s1" d="m290.92 171.79c-6.35 13.88-20.33 23.51-36.58 23.51-22.21 0-40.28-18.02-40.28-40.23 0-19.79 14.31-36.25 33.08-39.64-2.37 5.11-3.66 10.76-3.66 16.73 0 22.26 18.02 40.28 40.23 40.28q3.72 0 7.21-0.65z"/>
		</g>
	</g>
</svg>